<mxfile host="app.diagrams.net" modified="2020-08-19T06:33:37.664Z" agent="5.0 (Windows NT 10.0; Win64; x64) AppleWebKit/537.36 (KHTML, like Gecko) Chrome/84.0.4147.125 Safari/537.36" etag="NvZpR95vF8VH6yN8QV_v" version="13.6.2" type="github">
  <diagram id="VTPsMFwg8k-5zxdpXAnZ" name="第 1 页">
    <mxGraphModel dx="1038" dy="499" grid="1" gridSize="10" guides="1" tooltips="1" connect="1" arrows="1" fold="1" page="1" pageScale="1" pageWidth="827" pageHeight="1169" math="0" shadow="0">
      <root>
        <mxCell id="0" />
        <mxCell id="1" parent="0" />
        <mxCell id="5zgtj-_6i6fcaKIgakh6-1" value="" style="verticalLabelPosition=bottom;aspect=fixed;html=1;verticalAlign=top;strokeColor=none;align=center;outlineConnect=0;shape=mxgraph.citrix.web_server;" vertex="1" parent="1">
          <mxGeometry x="100" y="120" width="76.5" height="90" as="geometry" />
        </mxCell>
        <mxCell id="5zgtj-_6i6fcaKIgakh6-2" value="" style="verticalLabelPosition=bottom;aspect=fixed;html=1;verticalAlign=top;strokeColor=none;align=center;outlineConnect=0;shape=mxgraph.citrix.web_server;" vertex="1" parent="1">
          <mxGeometry x="100" y="330" width="76.5" height="90" as="geometry" />
        </mxCell>
        <mxCell id="5zgtj-_6i6fcaKIgakh6-3" value="" style="rounded=0;whiteSpace=wrap;html=1;fillColor=none;" vertex="1" parent="1">
          <mxGeometry x="330" y="100" width="400" height="310" as="geometry" />
        </mxCell>
        <mxCell id="5zgtj-_6i6fcaKIgakh6-4" value="" style="verticalLabelPosition=bottom;aspect=fixed;html=1;verticalAlign=top;strokeColor=none;align=center;outlineConnect=0;shape=mxgraph.citrix.web_server;" vertex="1" parent="1">
          <mxGeometry x="355" y="160" width="76.5" height="90" as="geometry" />
        </mxCell>
        <mxCell id="5zgtj-_6i6fcaKIgakh6-5" value="" style="verticalLabelPosition=bottom;aspect=fixed;html=1;verticalAlign=top;strokeColor=none;align=center;outlineConnect=0;shape=mxgraph.citrix.database_server;fillColor=none;" vertex="1" parent="1">
          <mxGeometry x="490" y="310" width="80" height="90" as="geometry" />
        </mxCell>
        <mxCell id="5zgtj-_6i6fcaKIgakh6-6" value="" style="verticalLabelPosition=bottom;aspect=fixed;html=1;verticalAlign=top;strokeColor=none;align=center;outlineConnect=0;shape=mxgraph.citrix.web_server;" vertex="1" parent="1">
          <mxGeometry x="491.75" y="160" width="76.5" height="90" as="geometry" />
        </mxCell>
        <mxCell id="5zgtj-_6i6fcaKIgakh6-7" value="" style="verticalLabelPosition=bottom;aspect=fixed;html=1;verticalAlign=top;strokeColor=none;align=center;outlineConnect=0;shape=mxgraph.citrix.web_server;" vertex="1" parent="1">
          <mxGeometry x="630" y="160" width="76.5" height="90" as="geometry" />
        </mxCell>
        <mxCell id="5zgtj-_6i6fcaKIgakh6-8" value="" style="endArrow=none;dashed=1;html=1;exitX=0;exitY=0.5;exitDx=0;exitDy=0;entryX=1;entryY=0.5;entryDx=0;entryDy=0;" edge="1" parent="1" source="5zgtj-_6i6fcaKIgakh6-3" target="5zgtj-_6i6fcaKIgakh6-3">
          <mxGeometry width="50" height="50" relative="1" as="geometry">
            <mxPoint x="370" y="270" as="sourcePoint" />
            <mxPoint x="420" y="220" as="targetPoint" />
          </mxGeometry>
        </mxCell>
        <mxCell id="5zgtj-_6i6fcaKIgakh6-9" value="SYN" style="text;html=1;strokeColor=none;fillColor=none;align=center;verticalAlign=middle;whiteSpace=wrap;rounded=0;fontSize=34;fontColor=#FF0000;" vertex="1" parent="1">
          <mxGeometry x="118" y="90" width="40" height="20" as="geometry" />
        </mxCell>
        <mxCell id="5zgtj-_6i6fcaKIgakh6-10" value="DOC" style="text;html=1;strokeColor=none;fillColor=none;align=center;verticalAlign=middle;whiteSpace=wrap;rounded=0;fontSize=34;fontColor=#FF0000;" vertex="1" parent="1">
          <mxGeometry x="118" y="300" width="40" height="20" as="geometry" />
        </mxCell>
        <mxCell id="5zgtj-_6i6fcaKIgakh6-11" value="MID" style="text;html=1;strokeColor=none;fillColor=none;align=center;verticalAlign=middle;whiteSpace=wrap;rounded=0;fontSize=34;fontColor=#FF0000;" vertex="1" parent="1">
          <mxGeometry x="373.25" y="120" width="40" height="20" as="geometry" />
        </mxCell>
        <mxCell id="5zgtj-_6i6fcaKIgakh6-12" value="EMS" style="text;html=1;strokeColor=none;fillColor=none;align=center;verticalAlign=middle;whiteSpace=wrap;rounded=0;fontSize=34;fontColor=#FF0000;" vertex="1" parent="1">
          <mxGeometry x="510" y="120" width="40" height="20" as="geometry" />
        </mxCell>
        <mxCell id="5zgtj-_6i6fcaKIgakh6-13" value="Galaxy" style="text;html=1;strokeColor=none;fillColor=none;align=center;verticalAlign=middle;whiteSpace=wrap;rounded=0;fontSize=34;fontColor=#FF0000;" vertex="1" parent="1">
          <mxGeometry x="644" y="120" width="40" height="20" as="geometry" />
        </mxCell>
        <mxCell id="5zgtj-_6i6fcaKIgakh6-14" value="Database" style="text;html=1;strokeColor=none;fillColor=none;align=center;verticalAlign=middle;whiteSpace=wrap;rounded=0;fontSize=34;fontColor=#FF0000;" vertex="1" parent="1">
          <mxGeometry x="510" y="280" width="40" height="20" as="geometry" />
        </mxCell>
      </root>
    </mxGraphModel>
  </diagram>
</mxfile>
